<svg width="0" height="0" class="hidden">
  <symbol aria-hidden="true" xmlns="http://www.w3.org/2000/svg" viewBox="0 0 576 576" id="friends">
<g><path d="m126 211c-46.869 0-85-38.131-85-85s38.131-85 85-85 85 38.131 85 85-38.131 85-85 85z"/><path d="m386 211c-46.869 0-85-38.131-85-85s38.131-85 85-85 85 38.131 85 85-38.131 85-85 85z"/><g><g><path d="m407 283.5c0-19.453 7.716-37.127 20.23-50.162-12.807 4.938-26.704 7.662-41.23 7.662-34.78 0-66.002-15.522-87.107-40h-84.685c34.507 26.53 56.792 68.208 56.792 115v155h145.001v-80c0-8.284 6.716-15 15-15s15 6.716 15 15v80h39.999c8.284 0 15-6.716 15-15v-100h-21.5c-39.977 0-72.5-32.523-72.5-72.5z"/><path d="m501 355.835v-.022c-.085.007-.079.014 0 .022z"/></g><path d="m497 326h-17.5c-23.435 0-42.5-19.065-42.5-42.5s19.065-42.5 42.5-42.5c17.92 0 32.5 14.58 32.5 32.5v37.5c0 8.284-6.716 15-15 15z"/><g><g><path d="m190.731 221.001c-18.451 12.612-40.744 19.999-64.731 19.999-14.525 0-28.421-2.722-41.227-7.659 12.512 13.034 20.227 30.707 20.227 50.159 0 39.977-32.523 72.5-72.5 72.5h-21.5v100c0 8.284 6.716 15 15 15h40.001v-80c0-8.284 6.716-15 15-15s15 6.716 15 15v80h144.999v-155c0-39.423-19.945-74.271-50.269-94.999z"/><path d="m11 355.813v.032c.115-.011.124-.022 0-.032z"/></g><path d="m0 311v-37.5c0-17.92 14.58-32.5 32.5-32.5 23.435 0 42.5 19.065 42.5 42.5s-19.065 42.5-42.5 42.5h-17.5c-8.284 0-15-6.716-15-15z"/></g></g></g>
  </symbol>
  <symbol aria-hidden="true" xmlns="http://www.w3.org/2000/svg" viewBox="0 0 576 576" id="messages">
    <path d="M502.3 190.8c3.9-3.1 9.7-.2 9.7 4.7V400c0 26.5-21.5 48-48 48H48c-26.5 0-48-21.5-48-48V195.6c0-5 5.7-7.8 9.7-4.7 22.4 17.4 52.1 39.5 154.1 113.6 21.1 15.4 56.7 47.8 92.2 47.6 35.7.3 72-32.8 92.3-47.6 102-74.1 131.6-96.3 154-113.7zM256 320c23.2.4 56.6-29.2 73.4-41.4 132.7-96.3 142.8-104.7 173.4-128.7 5.8-4.5 9.2-11.5 9.2-18.9v-19c0-26.5-21.5-48-48-48H48C21.5 64 0 85.5 0 112v19c0 7.4 3.4 14.3 9.2 18.9 30.6 23.9 40.7 32.4 173.4 128.7 16.8 12.2 50.2 41.8 73.4 41.4z"></path>
  </symbol>
  <symbol aria-hidden="true" xmlns="http://www.w3.org/2000/svg" viewBox="0 0 576 576" id="home">
    <path d="M280.37 148.26L96 300.11V464a16 16 0 0 0 16 16l112.06-.29a16 16 0 0 0 15.92-16V368a16 16 0 0 1 16-16h64a16 16 0 0 1 16 16v95.64a16 16 0 0 0 16 16.05L464 480a16 16 0 0 0 16-16V300L295.67 148.26a12.19 12.19 0 0 0-15.3 0zM571.6 251.47L488 182.56V44.05a12 12 0 0 0-12-12h-56a12 12 0 0 0-12 12v72.61L318.47 43a48 48 0 0 0-61 0L4.34 251.47a12 12 0 0 0-1.6 16.9l25.5 31A12 12 0 0 0 45.15 301l235.22-193.74a12.19 12.19 0 0 1 15.3 0L530.9 301a12 12 0 0 0 16.9-1.6l25.5-31a12 12 0 0 0-1.7-16.93z"></path>
  </symbol>
  <symbol xmlns="http://www.w3.org/2000/svg" viewBox="0 0 24 24" id="logo">
    <path d="M19.915 13.028c-.388-.49-.277-.708 0-1.146.005-.005 3.208-4.431 3.538-5.932l.002-.001c.164-.547 0-.949-.793-.949h-2.624c-.668 0-.976.345-1.141.731 0 0-1.336 3.198-3.226 5.271-.61.599-.892.791-1.225.791-.164 0-.419-.192-.419-.739V5.949c0-.656-.187-.949-.74-.949H9.161c-.419 0-.668.306-.668.591 0 .622.945.765 1.043 2.515v3.797c0 .832-.151.985-.486.985-.892 0-3.057-3.211-4.34-6.886-.259-.713-.512-1.001-1.185-1.001H.9c-.749 0-.9.345-.9.731 0 .682.892 4.073 4.148 8.553C6.318 17.343 9.374 19 12.154 19c1.671 0 1.875-.368 1.875-1.001 0-2.922-.151-3.198.686-3.198.388 0 1.056.192 2.616 1.667C19.114 18.217 19.407 19 20.405 19h2.624c.748 0 1.127-.368.909-1.094-.499-1.527-3.871-4.668-4.023-4.878z"></path>
  </symbol>
  <symbol aria-hidden="true" xmlns="http://www.w3.org/2000/svg" viewBox="0 0 640 512" id="settings">
    <path d="M610.5 373.3c2.6-14.1 2.6-28.5 0-42.6l25.8-14.9c3-1.7 4.3-5.2 3.3-8.5-6.7-21.6-18.2-41.2-33.2-57.4-2.3-2.5-6-3.1-9-1.4l-25.8 14.9c-10.9-9.3-23.4-16.5-36.9-21.3v-29.8c0-3.4-2.4-6.4-5.7-7.1-22.3-5-45-4.8-66.2 0-3.3.7-5.7 3.7-5.7 7.1v29.8c-13.5 4.8-26 12-36.9 21.3l-25.8-14.9c-2.9-1.7-6.7-1.1-9 1.4-15 16.2-26.5 35.8-33.2 57.4-1 3.3.4 6.8 3.3 8.5l25.8 14.9c-2.6 14.1-2.6 28.5 0 42.6l-25.8 14.9c-3 1.7-4.3 5.2-3.3 8.5 6.7 21.6 18.2 41.1 33.2 57.4 2.3 2.5 6 3.1 9 1.4l25.8-14.9c10.9 9.3 23.4 16.5 36.9 21.3v29.8c0 3.4 2.4 6.4 5.7 7.1 22.3 5 45 4.8 66.2 0 3.3-.7 5.7-3.7 5.7-7.1v-29.8c13.5-4.8 26-12 36.9-21.3l25.8 14.9c2.9 1.7 6.7 1.1 9-1.4 15-16.2 26.5-35.8 33.2-57.4 1-3.3-.4-6.8-3.3-8.5l-25.8-14.9zM496 400.5c-26.8 0-48.5-21.8-48.5-48.5s21.8-48.5 48.5-48.5 48.5 21.8 48.5 48.5-21.7 48.5-48.5 48.5zM224 256c70.7 0 128-57.3 128-128S294.7 0 224 0 96 57.3 96 128s57.3 128 128 128zm201.2 226.5c-2.3-1.2-4.6-2.6-6.8-3.9l-7.9 4.6c-6 3.4-12.8 5.3-19.6 5.3-10.9 0-21.4-4.6-28.9-12.6-18.3-19.8-32.3-43.9-40.2-69.6-5.5-17.7 1.9-36.4 17.9-45.7l7.9-4.6c-.1-2.6-.1-5.2 0-7.8l-7.9-4.6c-16-9.2-23.4-28-17.9-45.7.9-2.9 2.2-5.8 3.2-8.7-3.8-.3-7.5-1.2-11.4-1.2h-16.7c-22.2 10.2-46.9 16-72.9 16s-50.6-5.8-72.9-16h-16.7C60.2 288 0 348.2 0 422.4V464c0 26.5 21.5 48 48 48h352c10.1 0 19.5-3.2 27.2-8.5-1.2-3.8-2-7.7-2-11.8v-9.2z"></path>
  </symbol>
  <symbol aria-hidden="true" xmlns="http://www.w3.org/2000/svg" viewBox="0 0 576 576" id="music">
    <path d="M470.38 1.51L150.41 96A32 32 0 0 0 128 126.51v261.41A139 139 0 0 0 96 384c-53 0-96 28.66-96 64s43 64 96 64 96-28.66 96-64V214.32l256-75v184.61a138.4 138.4 0 0 0-32-3.93c-53 0-96 28.66-96 64s43 64 96 64 96-28.65 96-64V32a32 32 0 0 0-41.62-30.49z"></path>
  </symbol>
  <symbol aria-hidden="true" xmlns="http://www.w3.org/2000/svg" viewBox="0 0 448 512" id="trash">
      <path fill="currentColor" d="M432 32H312l-9.4-18.7A24 24 0 0 0 281.1 0H166.8a23.72 23.72 0 0 0-21.4 13.3L136 32H16A16 16 0 0 0 0 48v32a16 16 0 0 0 16 16h416a16 16 0 0 0 16-16V48a16 16 0 0 0-16-16zM53.2 467a48 48 0 0 0 47.9 45h245.8a48 48 0 0 0 47.9-45L416 128H32z"></path>
  </symbol>
  <symbol aria-hidden="true" xmlns="http://www.w3.org/2000/svg" viewBox="0 0 512 512" id="like">
      <path fill="currentColor" d="M462.3 62.6C407.5 15.9 326 24.3 275.7 76.2L256 96.5l-19.7-20.3C186.1 24.3 104.5 15.9 49.7 62.6c-62.8 53.6-66.1 149.8-9.9 207.9l193.5 199.8c12.5 12.9 32.8 12.9 45.3 0l193.5-199.8c56.3-58.1 53-154.3-9.8-207.9z"></path>
  </symbol>
  <symbol aria-hidden="true" xmlns="http://www.w3.org/2000/svg" viewBox="0 0 640 512" id="users">
      <path d="M96 224c35.3 0 64-28.7 64-64s-28.7-64-64-64-64 28.7-64 64 28.7 64 64 64zm448 0c35.3 0 64-28.7 64-64s-28.7-64-64-64-64 28.7-64 64 28.7 64 64 64zm32 32h-64c-17.6 0-33.5 7.1-45.1 18.6 40.3 22.1 68.9 62 75.1 109.4h66c17.7 0 32-14.3 32-32v-32c0-35.3-28.7-64-64-64zm-256 0c61.9 0 112-50.1 112-112S381.9 32 320 32 208 82.1 208 144s50.1 112 112 112zm76.8 32h-8.3c-20.8 10-43.9 16-68.5 16s-47.6-6-68.5-16h-8.3C179.6 288 128 339.6 128 403.2V432c0 26.5 21.5 48 48 48h288c26.5 0 48-21.5 48-48v-28.8c0-63.6-51.6-115.2-115.2-115.2zm-223.7-13.4C161.5 263.1 145.6 256 128 256H64c-35.3 0-64 28.7-64 64v32c0 17.7 14.3 32 32 32h65.9c6.3-47.4 34.9-87.3 75.2-109.4z"></path>
   </symbol>
   <symbol aria-hidden="true" xmlns="http://www.w3.org/2000/svg" viewBox="0 0 451.847 451.847" id="arrow">
      <path d="M97.141,225.92c0-8.095,3.091-16.192,9.259-22.366L300.689,9.27c12.359-12.359,32.397-12.359,44.751,0
      c12.354,12.354,12.354,32.388,0,44.748L173.525,225.92l171.903,171.909c12.354,12.354,12.354,32.391,0,44.744
      c-12.354,12.365-32.386,12.365-44.745,0l-194.29-194.281C100.226,242.115,97.141,234.018,97.141,225.92z"/>
   </symbol>
   <symbol aria-hidden="true" xmlns="http://www.w3.org/2000/svg" viewBox="0 0 532.153 532.153" id="double-arrow">
      <path d="M224.334,510.96c8.758,13.709,23.586,21.193,38.721,21.193c8.458,0,17.014-2.338,24.67-7.228
			c21.358-13.647,27.619-42.032,13.966-63.391l-124.879-195.46l124.879-195.46c13.647-21.365,7.393-49.744-13.966-63.391
			c-21.354-13.642-49.744-7.393-63.392,13.966L83.66,241.362c-9.627,15.067-9.627,34.357,0,49.425L224.334,510.96z"/>
		<path d="M230.454,290.787L371.128,510.96c8.765,13.709,23.587,21.193,38.722,21.193c8.458,0,17.014-2.338,24.67-7.228
			c21.358-13.647,27.613-42.032,13.966-63.391l-124.885-195.46l124.891-195.46c13.642-21.359,7.393-49.744-13.966-63.391
			c-21.353-13.642-49.743-7.393-63.391,13.966L230.454,241.362C220.821,256.43,220.821,275.72,230.454,290.787z"/>
   </symbol>
</svg>